{"title":"The Invisible War 2012 DVDRip XviD-WiDE","uid":7754275,"size":740393956,"categoryP":"video","categoryS":"movies","magnet":"?xt=urn:btih:ec906f910e4f235eb7de36976f7cae512da6f6b6&amp;dn=The+Invisible+War+2012+DVDRip+XviD-WiDE&amp;tr=udp%3A%2F%2Ftracker.openbittorrent.com%3A80&amp;tr=udp%3A%2F%2Fopen.demonii.com%3A1337&amp;tr=udp%3A%2F%2Ftracker.coppersurfer.tk%3A6969&amp;tr=udp%3A%2F%2Fexodus.desync.com%3A6969","seeders":1,"leechers":1,"uploader":"lyrical1986","files":3,"time":1351046537,"description":"An investigative documentary about the epidemic of rape of soldiers within the US military.\n\nHelen Benedict\t...\tHerself\nAnu Bhagwati\t...\tHerself\nSusan Burke\t...\tHerself\nKori Cioca\t...\tHerself\nSusan Davis\t...\tHerself\nElle Helmer\t...\tHerself\nAmy Herdy\t...\tHerself\nMary Kay Hertog\t...\tHerself\nJessica Hinves\t...\tHerself\n\nFormat                           : AVI\nFormat/Info                      : Audio Video Interleave\nFile size                        : 699 MiB\nDuration                         : 1h 37mn\nOverall bit rate                 : 1 001 Kbps\n\nVideo\nID                               : 0\nFormat                           : MPEG-4 Visual\nFormat profile                   : Advanced Simple@L5\nFormat settings, BVOP            : 1\nFormat settings, QPel            : No\nFormat settings, GMC             : No warppoints\nFormat settings, Matrix          : Default (MPEG)\nCodec ID                         : XVID\nCodec ID/Hint                    : XviD\nDuration                         : 1h 37mn\nBit rate                         : 815 Kbps\nWidth                            : 624 pixels\nHeight                           : 352 pixels\nDisplay aspect ratio             : 16:9\nFrame rate                       : 29.970 fps\nColor space                      : YUV\nChroma subsampling               : 4:2:0\nBit depth                        : 8 bits\nScan type                        : Progressive\nCompression mode                 : Lossy\nBits/(Pixel*Frame)               : 0.124\nStream size                      : 569 MiB (81%)\nWriting library                  : XviD 1.2.1 (UTC 2008-12-04)\n\nAudio\nID                               : 1\nFormat                           : MPEG Audio\nFormat version                   : Version 1\nFormat profile                   : Layer 3\nMode                             : Joint stereo\nMode extension                   : MS Stereo\nCodec ID                         : 55\nCodec ID/Hint                    : MP3\nDuration                         : 1h 37mn\nBit rate mode                    : Variable\nBit rate                         : 172 Kbps\nNominal bit rate                 : 192 Kbps\nChannel(s)                       : 2 channels\nSampling rate                    : 48.0 KHz\nCompression mode                 : Lossy\nStream size                      : 120 MiB (17%)\nAlignment                        : Aligned on interleaves\nInterleave, duration             : 24 ms (0.72 video frame)\nInterleave, preload duration     : 49 ms\n &lt;a href=&quot;\nhttp://imageshack.us/a/img411/884/theinvisiblewar2012dvdr.jpg&quot; rel=&quot;nofollow&quot; target=&quot;_NEW&quot;&gt;\nhttp://imageshack.us/a/img411/884/theinvisiblewar2012dvdr.jpg&lt;/a&gt;","torrent":{"xt":"urn:btih:ec906f910e4f235eb7de36976f7cae512da6f6b6","amp;dn":"The+Invisible+War+2012+DVDRip+XviD-WiDE","amp;tr":["udp%3A%2F%2Ftracker.openbittorrent.com%3A80","udp%3A%2F%2Fopen.demonii.com%3A1337","udp%3A%2F%2Ftracker.coppersurfer.tk%3A6969","udp%3A%2F%2Fexodus.desync.com%3A6969"],"infoHash":"ec906f910e4f235eb7de36976f7cae512da6f6b6","infoHashBuffer":{"type":"Buffer","data":[236,144,111,145,14,79,35,94,183,222,54,151,111,124,174,81,45,166,246,182]},"announce":[],"urlList":[]}}